<?xml version="1.0" encoding="UTF-8"?>
<svg xmlns="http://www.w3.org/2000/svg" xmlns:xlink="http://www.w3.org/1999/xlink" width="47px" height="47px" viewBox="0 0 47 47" version="1.1">
<defs>
<linearGradient id="linear0" gradientUnits="userSpaceOnUse" x1="0" y1="0" x2="1" y2="1" gradientTransform="matrix(40.964355,0,0,14.719055,3.29895,8.780945)">
<stop offset="0" style="stop-color:rgb(45.098039%,84.313725%,100%);stop-opacity:1;"/>
<stop offset="1" style="stop-color:rgb(65.490196%,54.509804%,98.039216%);stop-opacity:1;"/>
</linearGradient>
</defs>
<g id="surface1">
<path style=" stroke:none;fill-rule:nonzero;fill:url(#linear0);" d="M 3.292969 23.5 L 3.292969 8.78125 L 9.558594 8.78125 C 11.128906 8.78125 12.269531 8.917969 12.980469 9.1875 C 13.699219 9.449219 14.269531 9.917969 14.699219 10.59375 C 15.125 11.273438 15.339844 12.042969 15.339844 12.90625 C 15.339844 14.011719 15.011719 14.921875 14.355469 15.640625 C 13.707031 16.359375 12.738281 16.8125 11.449219 17 C 12.09375 17.375 12.625 17.789062 13.042969 18.234375 C 13.457031 18.683594 14.019531 19.480469 14.730469 20.625 L 16.527344 23.5 L 12.980469 23.5 L 10.824219 20.296875 C 10.0625 19.152344 9.542969 18.433594 9.261719 18.140625 C 8.980469 17.839844 8.683594 17.636719 8.371094 17.53125 C 8.058594 17.417969 7.558594 17.359375 6.871094 17.359375 L 6.277344 17.359375 L 6.277344 23.5 Z M 6.277344 15 L 8.464844 15 C 9.890625 15 10.78125 14.945312 11.136719 14.828125 C 11.488281 14.703125 11.765625 14.496094 11.964844 14.203125 C 12.171875 13.914062 12.277344 13.542969 12.277344 13.09375 C 12.277344 12.605469 12.140625 12.210938 11.871094 11.90625 C 11.609375 11.59375 11.238281 11.402344 10.761719 11.328125 C 10.519531 11.289062 9.796875 11.265625 8.589844 11.265625 L 6.277344 11.265625 Z M 18.171875 23.5 L 18.171875 8.78125 L 21.15625 8.78125 L 21.15625 15.3125 L 27.15625 8.78125 L 31.15625 8.78125 L 25.609375 14.515625 L 31.453125 23.5 L 27.609375 23.5 L 23.5625 16.59375 L 21.15625 19.046875 L 21.15625 23.5 Z M 32.992188 23.5 L 32.992188 8.78125 L 37.757812 8.78125 C 39.558594 8.78125 40.734375 8.855469 41.289062 9 C 42.132812 9.21875 42.835938 9.699219 43.398438 10.4375 C 43.96875 11.179688 44.257812 12.136719 44.257812 13.3125 C 44.257812 14.21875 44.089844 14.980469 43.757812 15.59375 C 43.433594 16.210938 43.015625 16.695312 42.507812 17.046875 C 42.007812 17.390625 41.496094 17.621094 40.976562 17.734375 C 40.265625 17.882812 39.242188 17.953125 37.898438 17.953125 L 35.960938 17.953125 L 35.960938 23.5 Z M 35.960938 11.265625 L 35.960938 15.453125 L 37.585938 15.453125 C 38.75 15.453125 39.53125 15.375 39.929688 15.21875 C 40.324219 15.0625 40.632812 14.824219 40.851562 14.5 C 41.078125 14.167969 41.195312 13.78125 41.195312 13.34375 C 41.195312 12.8125 41.039062 12.375 40.726562 12.03125 C 40.414062 11.679688 40.015625 11.460938 39.539062 11.375 C 39.183594 11.304688 38.46875 11.265625 37.398438 11.265625 Z M 35.960938 11.265625 "/>
</g>
</svg>
